<?xml version="1.0" encoding="UTF-8"?>
<svg width="1440px" height="605px" viewBox="0 0 1440 605" version="1.1" xmlns="http://www.w3.org/2000/svg" xmlns:xlink="http://www.w3.org/1999/xlink">
    <!-- Generator: Sketch 53.2 (72643) - https://sketchapp.com -->
    <title>Caco Logo (Black)</title>
    <desc>Created with Sketch.</desc>
    <g id="Caco-Logo-(Black)" stroke="none" stroke-width="1" fill="none" fill-rule="evenodd">
        <path d="M108.87488,561 C93.8632234,561 80,550.021651 80,530.458728 C80,510.895805 94.4374398,500 108.87488,500 C122.163887,500 131.51541,507.26387 134.468523,518.572395 L127.00371,521.213802 C124.788876,512.381597 118.390465,507.428958 108.87488,507.428958 C98.2928924,507.428958 88.2030908,515.188092 88.2030908,530.458728 C88.2030908,545.729364 98.2928924,553.571042 108.87488,553.571042 C118.800619,553.571042 125.034968,547.545332 127.413865,539.538566 L134.550554,542.179973 C131.433379,553.158322 122.245917,561 108.87488,561 Z M237.381297,559.76184 L231.064917,543.418133 L205.307212,543.418133 L199.154894,559.76184 L190.541648,559.76184 L213.674364,501.23816 L222.943857,501.23816 L246.076573,559.76184 L237.381297,559.76184 Z M218.104033,509.657645 L208.178294,535.906631 L228.193835,535.906631 L218.104033,509.657645 Z M344.067492,514.52774 L336.848773,517.086604 C336.192525,512.876861 332.665196,507.098782 324.544136,507.098782 C317.981664,507.098782 313.305902,511.391069 313.305902,516.838972 C313.305902,521.048714 315.84886,524.26793 320.770715,525.341001 L329.465991,527.239513 C339.145638,529.385656 344.559678,535.493911 344.559678,543.665765 C344.559678,552.745602 336.848773,561 324.462106,561 C310.43482,561 303.790317,551.920162 302.723915,543.583221 L310.43482,541.106901 C311.009037,547.627876 315.602768,553.653586 324.380075,553.653586 C332.419104,553.653586 336.356587,549.443843 336.356587,544.326116 C336.356587,540.116373 333.485505,536.484438 327.661311,535.246279 L319.376189,533.430311 C311.091068,531.614344 305.184842,526.166441 305.184842,517.416779 C305.184842,508.254398 313.634026,500 324.380075,500 C337.50502,500 342.754998,508.171854 344.067492,514.52774 Z M454.937265,559.76184 L446.898236,559.76184 L446.898236,533.760487 L417.203047,533.760487 L417.203047,559.76184 L409.164018,559.76184 L409.164018,501.23816 L417.203047,501.23816 L417.203047,526.248985 L446.898236,526.248985 L446.898236,501.23816 L454.937265,501.23816 L454.937265,559.76184 Z M592.75919,547.710419 L592.75919,538.38295 L615.563782,506.273342 L626.637955,506.273342 L626.637955,540.198917 L635.743386,540.198917 L635.743386,547.710419 L626.637955,547.710419 L626.637955,559.76184 L618.845019,559.76184 L618.845019,547.710419 L592.75919,547.710419 Z M618.845019,540.198917 L618.845019,514.032476 L600.141972,540.198917 L618.845019,540.198917 Z M797.108182,561 C782.096526,561 768.233302,550.021651 768.233302,530.458728 C768.233302,510.895805 782.670742,500 797.108182,500 C810.397189,500 819.748712,507.26387 822.701825,518.572395 L815.237012,521.213802 C813.022178,512.381597 806.623767,507.428958 797.108182,507.428958 C786.526195,507.428958 776.436393,515.188092 776.436393,530.458728 C776.436393,545.729364 786.526195,553.571042 797.108182,553.571042 C807.033921,553.571042 813.26827,547.545332 815.647167,539.538566 L822.783856,542.179973 C819.666681,553.158322 810.47922,561 797.108182,561 Z M917.083384,559.76184 L903.794377,535.824087 L895.099101,535.824087 L895.099101,559.76184 L886.978041,559.76184 L886.978041,501.23816 L908.880294,501.23816 C919.872435,501.23816 926.681001,508.997294 926.681001,518.654939 C926.681001,527.074425 921.348992,533.595399 912.571685,535.246279 L926.434908,559.76184 L917.083384,559.76184 Z M895.099101,528.560217 L907.403737,528.560217 C913.96621,528.560217 918.395879,524.68065 918.395879,518.654939 C918.395879,512.464141 913.96621,508.50203 907.403737,508.50203 L895.099101,508.50203 L895.099101,528.560217 Z M1004.41029,534.751015 L983.902559,501.23816 L993.582206,501.23816 L1008.67589,527.322057 L1023.76958,501.23816 L1032.95704,501.23816 L1012.44931,534.751015 L1012.44931,559.76184 L1004.41029,559.76184 L1004.41029,534.751015 Z M1102.72933,528.560217 L1114.37772,528.560217 C1121.35035,528.560217 1125.61595,524.68065 1125.61595,518.654939 C1125.61595,512.464141 1121.35035,508.50203 1114.37772,508.50203 L1102.72933,508.50203 L1102.72933,528.560217 Z M1115.85427,535.824087 L1102.72933,535.824087 L1102.72933,559.76184 L1094.6903,559.76184 L1094.6903,501.23816 L1115.85427,501.23816 C1126.60032,501.23816 1133.81904,508.749662 1133.81904,518.572395 C1133.81904,528.477673 1126.60032,535.824087 1115.85427,535.824087 Z M1237.55213,508.749662 L1218.1108,508.749662 L1218.1108,559.76184 L1210.07177,559.76184 L1210.07177,508.749662 L1190.63045,508.749662 L1190.63045,501.23816 L1237.55213,501.23816 L1237.55213,508.749662 Z M1303.79708,530.458728 C1303.79708,545.729364 1313.96892,553.571042 1324.797,553.571042 C1335.62508,553.571042 1345.79691,545.729364 1345.79691,530.458728 C1345.79691,515.188092 1335.62508,507.428958 1324.797,507.428958 C1313.96892,507.428958 1303.79708,515.188092 1303.79708,530.458728 Z M1295.59399,530.458728 C1295.59399,510.895805 1310.1955,500 1324.797,500 C1339.3985,500 1354,510.895805 1354,530.458728 C1354,550.021651 1339.3985,561 1324.797,561 C1310.1955,561 1295.59399,550.021651 1295.59399,530.458728 Z" id="CASH4CRYPTO" fill="#343639" fill-rule="nonzero"></path>
        <path d="M1208.5,435 C1095.55777,435 1004,343.442231 1004,230.5 C1004,117.557769 1095.55777,26 1208.5,26 C1321.44223,26 1413,117.557769 1413,230.5 C1413,343.442231 1321.44223,435 1208.5,435 Z M1208,341 C1269.85589,341 1320,290.855892 1320,229 C1320,167.144108 1269.85589,117 1208,117 C1146.14411,117 1096,167.144108 1096,229 C1096,290.855892 1146.14411,341 1208,341 Z" id="Combined-Shape" fill="#343639"></path>
        <path d="M353.699642,61.5194388 C319.863238,37.8398129 280.43664,26 235.41985,26 C132.531813,26 34,110.629933 34,233.80276 C34,342.18405 126.649737,435 235.41985,435 C301.82603,435 354.573807,435 393.663183,435 L511.914471,167.982413 L583.477325,345.184566 L512.478057,345.184566 L472.464547,435 L670.001704,435 C688.227101,435 703.001704,420.225397 703.001704,402 C703.001704,397.809453 702.203555,393.657251 700.649922,389.765348 L573.24282,70.6062337 C561.585537,41.5355258 541.599659,27.0001719 513.285186,27.0001719 C484.970713,27.0001719 464.775365,41.9126399 452.699142,71.7375759 L332.827812,342.18405 C313.131916,342.18405 281.729897,342.18405 238.621755,342.18405 C173.959542,342.18405 126.054775,285.390392 126.054775,233.80276 C126.431482,149.098246 195.801941,117 236.49631,117 C266.456053,117 292.71193,127.301547 315.26394,147.904642 L353.699642,61.5194388 Z" id="Path-2-Copy-3" fill="#343639"></path>
        <path d="M1002.69964,61.5194388 C968.863238,37.8398129 929.43664,26 884.41985,26 C781.531813,26 683,110.629933 683,233.80276 C683,342.18405 775.649737,435 884.41985,435 C950.82603,435 1003.57381,435 1042.66318,435 L981.827812,342.18405 C962.131916,342.18405 930.729897,342.18405 887.621755,342.18405 C822.959542,342.18405 775.054775,285.390392 775.054775,233.80276 C775.431482,149.098246 844.801941,117 885.49631,117 C915.456053,117 941.71193,127.301547 964.26394,147.904642 L1002.69964,61.5194388 Z" id="Path-2-Copy-5" fill="#343639"></path>
    </g>
</svg>