<svg width="299.99999999999994" height="79.629013" xmlns="http://www.w3.org/2000/svg">
 <metadata id="metadata16">image/svg+xml</metadata>
 <defs>
  <linearGradient y2="0.49993" x2="1.00053" y1="0.49993" x1="0.00005" id="Revolut-logo-coloured_2_">
   <stop stop-color="#52C3E7" id="stop2" offset="0"/>
   <stop stop-color="#0089CC" id="stop4" offset="1"/>
  </linearGradient>
 </defs>
 <g>
  <title>background</title>
  <rect fill="#ffffff" id="canvas_background" height="81.62901" width="302" y="-1" x="-1"/>
 </g>
 <g>
  <title>Layer 1</title>
  <g transform="matrix(1.5797048,0,0,1.5797048,0.01405282,-43.125941) " id="Revolut_Logo">
   <path fill="url(#Revolut-logo-coloured_2_)" d="m19.5,34.7c-3.9,0.1 -8.2,0.5 -9.4,0.8l0,0c1.2,-0.3 5.5,-0.7 9.4,-0.8m2.4,5.6l-2.2,0c-0.2,0.9 -0.3,1.8 -0.4,2.7l-1.6,9.7l2.7,0c3.5,0 6.1,-2.9 6.1,-7.3c0,-3.1 -1.8,-5.1 -4.6,-5.1m29.8,10.5c-1.6,0 -2.7,3.1 -3.3,5.6l0.9,0c2,0 3.6,-1.3 3.8,-2.9c0,-0.2 0,-0.4 0,-0.6c0,-0.5 -0.1,-1 -0.4,-1.4c-0.1,-0.4 -0.5,-0.7 -1,-0.7m52.3,0.4c-0.1,0 -0.1,-0.1 -0.2,-0.1c-0.1,-0.1 -0.3,-0.1 -0.4,-0.1c-0.3,0 -0.6,0.1 -0.8,0.3c-0.1,0.1 -0.2,0.1 -0.3,0.2c-0.1,0.1 -0.1,0.2 -0.2,0.2c-0.5,0.7 -0.9,1.4 -1.1,2.2c-0.1,0.1 -0.1,0.3 -0.2,0.5c-0.2,0.5 -0.3,1.1 -0.5,1.6c-0.1,0.4 -0.2,0.9 -0.3,1.3c-0.2,1.4 -0.4,2.9 -0.4,4.4c0,0.7 0,1.5 0.1,2.2c0,0.2 0,0.3 0.1,0.5c0.1,0.4 0.2,0.8 0.3,1.2c0.1,0.2 0.2,0.4 0.3,0.6c0.3,0.6 0.6,0.9 1,0.9c0.2,0 0.3,0 0.5,-0.1c0.2,-0.1 0.4,-0.2 0.6,-0.4c0.6,-0.7 1.2,-1.9 1.7,-3.5c0.1,-0.4 0.2,-0.8 0.3,-1.2c0.1,-0.5 0.2,-1 0.3,-1.5c0.1,-0.7 0.2,-1.4 0.2,-2.1c0.1,-0.7 0.1,-1.3 0.1,-2c0.1,-1.4 -0.1,-2.9 -0.6,-4.3c0,-0.2 -0.2,-0.6 -0.5,-0.8m76.6,8.8l0.5,-3.4c2.2,-0.2 3.9,-0.6 5.2,-1.5c1.6,-1 3.6,-2.9 3.6,-6.6c0,-2 -0.5,-3.9 -1.4,-5.6c-1,-1.8 -2.9,-2.9 -4.9,-2.9c-0.1,0 -0.2,0 -0.3,0c-0.1,-3 -2.6,-5.3 -5.6,-5.4c-2.8,0 -5.6,0.2 -8.3,0.6c-2.4,0.4 -4.3,2.6 -4.7,5c0,0.1 -6.4,0 -10.6,0c-3.3,0 -5,1.6 -5,1.6c0,0 -1.6,-2.1 -5.9,-1.6c-2.1,0.1 -4.1,0.4 -6.2,0.8c0.4,-2.6 0.7,-5.2 0.8,-7.8l0,-0.2c0,-3.1 -2.5,-5.6 -5.6,-5.7l0,0c-4.1,0 -8.8,0.6 -11.2,1.1c-2.6,0.7 -4.4,3.1 -4.3,5.8c0.1,2.4 -1,9.6 -1,9.6c-2.6,-2.2 -6.1,-3.4 -10.1,-3.4c-3.6,0 -7.2,0.8 -10.4,2.5c-1.1,-1.2 -2.7,-2 -4.3,-1.9l0,0c-3.2,0 -5.6,0 -7.9,0.2c-1.8,0.1 -3.4,1.1 -4.4,2.7c-0.1,-0.1 -0.1,-0.2 -0.2,-0.3c-1,-1.8 -2.9,-2.9 -4.9,-2.9c-4.2,0 -11.5,1.2 -11.8,1.4c-2.5,-1.1 -5.2,-1.7 -8,-1.6c-4.1,-0.1 -8.1,1 -11.5,3.1c-0.6,-8.5 -7.9,-14.3 -18.3,-14.3c0,0 -12.7,0.5 -15,1c-2.7,0.6 -4.6,3.1 -4.4,5.8c0,1.9 -0.1,3.9 -0.5,6l-3.7,23.8c-0.3,1.4 -1,5.7 1.7,8.9c1.1,1.3 3.1,2.8 6.6,2.8c1.6,0 5.9,-0.2 9.4,-1.8c0.9,-0.4 1.7,-1.1 2.3,-1.9c1.9,2.2 4.7,3.8 8.8,3.8c3.6,0 7.1,-0.9 10.3,-2.5c2.9,1.7 6.2,2.6 9.6,2.5c6.1,0 11.8,-2.4 15.4,-6.5c2,5.1 5.7,6.3 8.7,6.3c2.5,0 5.5,-0.3 8.5,-1.8c2.5,-1.2 3.6,-5.3 4.1,-6.2c2.5,5 7.5,8.1 13.8,8.1c5,0 9.9,-1.6 13.9,-4.8c0.3,0.5 0.6,0.9 0.9,1.3c1.3,1.5 3.8,3.3 8.1,3.3c3.1,0.1 6.2,-0.8 8.7,-2.5c1.4,1.4 3.7,2.7 7.2,2.7c2.6,0 5.2,-0.7 7.5,-1.9c1.7,1.2 3.9,1.8 6.5,1.8c4.1,0 7.8,-1.4 10.2,-3.9c2,2 5.5,4 11.5,4c5.5,0 11,-3.5 13.8,-8.2c2.2,-3.5 -0.2,-9.7 -7.2,-9.4m-144.1,-14.7c-0.3,4.4 -3.1,8 -7.4,10.3l0,0l3.9,10.3c1.1,2.8 1.8,3.9 3,4.8c-0.3,0.2 -0.6,0.3 -0.9,0.4c-1.9,0.6 -4,1 -6,0.9c-2,0 -4.7,-0.5 -6.4,-5.4l-2.9,-8.4l-2.9,0l-1.3,8c-0.2,0.9 -0.3,1.8 -0.3,2.7l0,0.2c0,0.5 0.1,1 0.3,1.5c0,0 0,0 0,0c-2.2,1 -5.2,1.3 -7,1.3c-1.5,0 -2.9,-0.5 -3,-3.1c0,-0.7 0.1,-1.4 0.2,-2.1l3.7,-23.8c0.3,-1.8 0.5,-3.7 0.5,-5.5c0,-0.6 0,-1.9 0,-1.9c1.2,-0.3 5.5,-0.8 9.4,-0.8c0.3,0 0.5,0 0.7,0l3.6,0c2.6,-0.1 5.1,0.5 7.5,1.5c0.6,0.3 1.3,0.7 1.8,1.1c0.5,0.4 1,0.9 1.5,1.4c0.6,0.8 1.1,1.6 1.5,2.6c0.3,1 0.5,2 0.5,3.1c0,0.3 0,0.6 0,0.9m14.3,16l0,0c-0.4,0 -0.8,0.1 -1.1,0.1c-0.1,0 -0.2,0 -0.2,0c-0.4,0 -0.8,0 -1.3,0l-0.1,0c0,0.2 0,0.4 0,0.6c0.2,2.8 1.4,5.2 4,5.2c0.2,0 0.4,0 0.6,0c2.5,-0.3 4,-2.1 5.3,-2.1c0.6,0.1 1.2,0.3 1.7,0.6l1.3,0.8c0,0 0,0 0,0c-0.9,1.3 -2,2.4 -3.4,3.2c-2.6,1.7 -5.6,2.5 -8.7,2.5c-6.6,0 -10.6,-3.7 -10.9,-9.6c0,-0.1 0,-1 0,-1c0,-7.5 4.9,-15.7 15.8,-15.7c1.6,0 3.2,0.2 4.6,0.7c0,0 0,0 0,0c2.6,0.9 4.1,2.8 4.1,5.3c0.1,3 -1.8,8.5 -11.7,9.4m30.3,4.8c-0.9,1.5 -1.7,3.1 -2.3,4.8c-1.8,0.9 -3.8,1.1 -5.8,1.1c-1.7,0 -3.3,-0.8 -4.1,-5.2l-2.5,-12.5c-0.5,-2.5 -1.3,-5 -2.3,-7.4c0.9,-0.2 1.8,-0.4 2.7,-0.5l0,0c0.2,0 0.4,-0.1 0.6,-0.1c0,0 0,0 0.1,0c0.2,0 0.4,0 0.7,-0.1c0,0 0,0 0.1,0c0.5,0 1,-0.1 1.6,-0.1c0,0 0.1,0 0.1,0c0.2,0 0.5,0 0.7,0c0.1,0 0.2,0 0.2,0c0.2,0 0.4,0 0.6,0c0.1,0 0.2,0 0.3,0c0.2,0 0.4,0 0.6,0c0.1,0 0.2,0 0.3,0c0.3,0 0.6,0 0.9,0c0.4,0.8 0.8,1.6 1.1,2.4c0.1,0.3 0.2,0.5 0.3,0.8c0.2,0.6 0.3,1.2 0.4,1.8l1.7,11.4c1.4,-2.7 2.7,-5.5 3.9,-8.3c0.8,-1.9 1.5,-3.8 2,-5.8c0.2,-0.7 0.3,-1.3 0.5,-2c0.6,-0.1 1.2,-0.1 1.8,-0.1c0.3,0 0.7,0 1,0c0.3,0 0.5,0 0.8,0c0.5,0 1,0 1.4,0c0.1,0 0.2,0 0.3,0c0.6,0 1.1,0 1.7,0l0.4,0c-0.2,1.7 -0.6,3.3 -1.3,4.9c-2.4,5.1 -5.4,10 -8.5,14.9m31.1,0.1l0,0c-0.9,1.2 -2,2.2 -3.2,3c0,0 0,0 0,0c-0.2,0.2 -0.5,0.3 -0.7,0.5c0,0 -0.1,0 -0.1,0.1c-0.2,0.1 -0.4,0.3 -0.6,0.4c0,0 -0.1,0 -0.1,0.1c-0.2,0.1 -0.4,0.2 -0.7,0.3c0,0 -0.1,0 -0.1,0.1c-0.3,0.1 -0.5,0.2 -0.8,0.3c0,0 0,0 0,0c-0.5,0.2 -1.1,0.4 -1.7,0.6c-0.1,0 -0.1,0 -0.2,0.1c-0.2,0.1 -0.4,0.1 -0.6,0.2c-0.1,0 -0.2,0 -0.3,0.1c-0.2,0 -0.4,0.1 -0.6,0.1c-0.1,0 -0.2,0 -0.3,0.1c-0.2,0 -0.4,0.1 -0.6,0.1c-0.1,0 -0.2,0 -0.3,0c-0.2,0 -0.4,0 -0.6,0c-0.1,0 -0.2,0 -0.3,0c-0.3,0 -0.6,0 -0.9,0c-0.4,0 -0.7,0 -1.1,0c-0.1,0 -0.2,0 -0.4,0c-0.2,0 -0.5,-0.1 -0.7,-0.1c-0.1,0 -0.3,-0.1 -0.4,-0.1c-0.2,0 -0.4,-0.1 -0.6,-0.1c-0.1,0 -0.3,-0.1 -0.4,-0.1c-0.2,-0.1 -0.4,-0.1 -0.5,-0.2c-0.1,-0.1 -0.3,-0.1 -0.4,-0.2c-0.2,-0.1 -0.3,-0.1 -0.5,-0.2c-0.1,-0.1 -0.3,-0.1 -0.4,-0.2c-0.1,-0.1 -0.3,-0.2 -0.4,-0.3c-0.1,-0.1 -0.2,-0.2 -0.4,-0.2c-0.1,-0.1 -0.3,-0.2 -0.4,-0.3c-0.1,-0.1 -0.2,-0.2 -0.3,-0.3c-0.1,-0.1 -0.2,-0.2 -0.3,-0.3c-0.1,-0.1 -0.2,-0.2 -0.3,-0.3c-0.1,-0.1 -0.2,-0.2 -0.3,-0.3c-0.1,-0.1 -0.2,-0.2 -0.3,-0.4c-0.1,-0.1 -0.2,-0.2 -0.3,-0.4c-0.1,-0.1 -0.2,-0.3 -0.2,-0.4c-0.1,-0.1 -0.1,-0.3 -0.2,-0.4c-0.1,-0.1 -0.1,-0.3 -0.2,-0.4c-0.1,-0.1 -0.1,-0.3 -0.2,-0.4c-0.1,-0.2 -0.1,-0.3 -0.2,-0.5c0,-0.1 -0.1,-0.3 -0.1,-0.4c0,-0.2 -0.1,-0.3 -0.1,-0.5c0,-0.1 -0.1,-0.3 -0.1,-0.4c-0.1,-0.5 -0.2,-1 -0.2,-1.5c0,0 0,0 0,0c0,-0.4 0,-0.8 0,-1.2c0,-5.6 2.6,-10.3 6.6,-13.1l0,0c0.7,-0.5 1.3,-0.9 2.1,-1.2c0,0 0,0 0,0c0.7,-0.3 1.5,-0.6 2.2,-0.9l0.1,0c0.4,-0.1 0.7,-0.2 1.1,-0.3c0,0 0.1,0 0.1,0c0.4,-0.1 0.7,-0.1 1.1,-0.2c0,0 0.1,0 0.1,0c0.4,-0.1 0.8,-0.1 1.1,-0.1l0.3,0c0.4,0 0.8,0 1.2,0c0.3,0 0.7,0 1,0c0.1,0 0.2,0 0.3,0c0.3,0 0.5,0.1 0.8,0.1c0.1,0 0.1,0 0.2,0c0.3,0.1 0.6,0.1 0.9,0.2c0.1,0 0.2,0.1 0.3,0.1c0.2,0.1 0.4,0.1 0.6,0.2c0.1,0 0.2,0.1 0.3,0.1c0.2,0.1 0.5,0.2 0.7,0.3c0.1,0 0.2,0.1 0.3,0.2c0.1,0.1 0.3,0.2 0.4,0.3c0.1,0.1 0.2,0.1 0.3,0.2c0.1,0.1 0.2,0.2 0.4,0.3c0.2,0.1 0.3,0.3 0.5,0.4c0.1,0.1 0.2,0.2 0.3,0.3c0.1,0.1 0.2,0.2 0.3,0.3c0.1,0.1 0.1,0.1 0.2,0.2c0.2,0.3 0.5,0.6 0.7,0.9c0,0 0,0 0,0c0.1,0.2 0.2,0.3 0.3,0.5c0,0.1 0.1,0.1 0.1,0.2c0.8,1.7 1.3,3.5 1.2,5.4c-0.1,3.2 -1.3,6.7 -3.5,9.6m19.7,-29.3c-0.2,1.4 -0.4,2.8 -0.6,4.2l-1.1,7.2l-2.8,17.8c0,0.2 -0.1,0.4 -0.1,0.6c0,0 0,0.1 0,0.1c0,0.2 0,0.3 0,0.5c0,0 0,0.1 0,0.1c0,0.1 0.1,0.2 0.1,0.3c0,0 0,0.1 0,0.1c0,0.1 0.1,0.2 0.2,0.3c0,0 0.1,0.1 0.1,0.1c0.1,0.1 0.1,0.1 0.2,0.2c0,0 0.1,0.1 0.1,0.1c0.4,0.3 0.9,0.4 1.4,0.4c-0.4,0.6 -0.9,1.1 -1.5,1.4c-0.1,0 -0.1,0.1 -0.2,0.1c-0.1,0.1 -0.3,0.2 -0.4,0.3c-0.1,0.1 -0.2,0.1 -0.3,0.1c-0.1,0.1 -0.3,0.1 -0.4,0.2c-0.2,0.1 -0.5,0.2 -0.8,0.3c-0.1,0 -0.2,0.1 -0.4,0.1c-0.2,0.1 -0.4,0.1 -0.6,0.1c-0.1,0 -0.2,0 -0.4,0.1c-0.2,0 -0.4,0.1 -0.7,0.1c-0.1,0 -0.2,0 -0.3,0c-0.3,0 -0.7,0 -1,0l0,0c-0.1,0 -0.3,0 -0.4,0c-0.1,0 -0.1,0 -0.2,0c-0.1,0 -0.2,0 -0.3,0c-0.1,0 -0.1,0 -0.2,0c-0.1,0 -0.2,0 -0.2,0c-0.1,0 -0.1,0 -0.2,0c-0.1,0 -0.1,0 -0.2,0c-0.1,0 -0.2,0 -0.2,-0.1c-0.1,0 -0.1,0 -0.2,-0.1c-0.1,0 -0.2,-0.1 -0.2,-0.1c0,0 -0.1,0 -0.1,-0.1c-0.1,0 -0.2,-0.1 -0.3,-0.1c0,0 -0.1,0 -0.1,0c-0.4,-0.2 -0.8,-0.5 -1.1,-0.9c0,0 0,0 0,-0.1c-0.1,-0.1 -0.1,-0.2 -0.2,-0.3c0,0 0,-0.1 -0.1,-0.1c-0.1,-0.1 -0.1,-0.2 -0.1,-0.3c0,0 0,-0.1 0,-0.1c0,-0.1 -0.1,-0.2 -0.1,-0.4c0,0 0,-0.1 0,-0.1c0,-0.1 -0.1,-0.3 -0.1,-0.4c0,0 0,-0.1 0,-0.1c0,-0.2 0,-0.3 0,-0.5c0,-0.5 0,-0.9 0.1,-1.4l4.1,-25.5c0.1,-0.3 0.1,-0.6 0.1,-1c0.2,-1.2 0.3,-2.3 0.4,-3.5c0,-0.9 0,-1.8 0,-2.9c0.2,0 0.3,-0.1 0.5,-0.1c0.2,0 0.4,-0.1 0.6,-0.1c0.3,-0.1 0.7,-0.1 1.1,-0.2c0.2,0 0.4,0 0.6,-0.1c0.6,-0.1 1.2,-0.1 1.9,-0.2c0.5,0 0.9,-0.1 1.4,-0.1c1.2,-0.1 2.5,-0.1 3.7,-0.1c0,0.8 -0.1,1.8 -0.1,2.8c-0.3,0.7 -0.4,1.1 -0.4,1.4m27.3,32.1c-1.2,1.8 -3.8,3 -6.9,3c-0.3,0 -0.7,0 -1,0c-0.3,0 -0.6,-0.1 -0.9,-0.2c-0.3,-0.1 -0.6,-0.2 -0.9,-0.3c-1.4,-0.6 -2.2,-2 -1.8,-4.7l0.1,-0.5c-0.1,0.3 -0.3,0.5 -0.5,0.8c-0.3,0.5 -0.7,1 -1,1.4c-0.4,0.4 -0.8,0.8 -1.2,1.1c-0.2,0.2 -0.4,0.3 -0.6,0.5c-0.4,0.3 -0.9,0.6 -1.3,0.8c-0.8,0.4 -1.7,0.8 -2.6,1c-0.4,0.1 -0.8,0.2 -1.2,0.2c-0.4,0 -0.7,0.1 -1.1,0.1c-0.2,0 -0.4,0 -0.7,0c-0.1,0 -0.2,0 -0.2,0c-0.1,0 -0.3,0 -0.4,-0.1c-0.1,0 -0.2,0 -0.3,-0.1c-0.1,0 -0.2,-0.1 -0.3,-0.1c-0.1,0 -0.2,-0.1 -0.3,-0.1c0,0 -0.1,0 -0.1,-0.1c-2.3,-1 -3,-3.7 -2.4,-7.3l1.6,-10.2c0,-0.3 0.1,-0.6 0.1,-0.8c0,-0.1 0,-0.2 0,-0.3c0,-0.2 0,-0.3 0.1,-0.5c0,-0.1 0,-0.3 0,-0.4c0,-0.1 0,-0.2 0,-0.4c0.1,-0.6 0.1,-1.1 0.1,-1.7c0,-0.1 0,-0.1 0,-0.2c0,-0.2 0,-0.4 0,-0.6c0,-0.1 0,-0.1 0,-0.2c0,-0.2 0,-0.4 0,-0.6c0,-0.6 0,-1.1 -0.1,-1.8c0.1,0 0.2,-0.1 0.4,-0.1c0.1,0 0.2,0 0.4,-0.1l0.2,0c0.1,0 0.2,0 0.3,0c0.1,0 0.1,0 0.2,0c0.1,0 0.2,0 0.3,0c0.1,0 0.1,0 0.2,0c0.1,0 0.2,0 0.3,0c0.1,0 0.2,0 0.2,0c0.1,0 0.2,0 0.3,0c0.1,0 0.2,0 0.3,0c0.1,0 0.2,0 0.3,0l0.3,0c0.1,0 0.2,0 0.3,0l0.3,0c0.1,0 0.2,0 0.3,0c0.1,0 0.2,0 0.3,0l0.4,0l0.3,0c0.1,0 0.2,0 0.4,0l0.3,0c0.1,0 0.3,0 0.4,0c0.1,0 0.2,0 0.3,0c0.1,0 0.3,0 0.4,0c0.1,0 0.2,0 0.3,0c0.1,0 0.3,0 0.4,0c0.1,0 0.2,0 0.3,0c0.2,0 0.3,0 0.5,0c0.1,0 0.2,0 0.3,0c0.2,0 0.5,0 0.7,0c0.1,2.2 -0.4,5.2 -0.8,8l-1.4,8.6c0,0.2 -0.2,1.7 -0.2,2.1l0,0c0,0.4 0,0.9 0.1,1.3c0,0.2 0.1,0.4 0.2,0.7c0.1,0.1 0.2,0.3 0.3,0.3c0,0 0.1,0 0.1,0c0.3,0 0.8,-0.3 1.4,-0.9c0.9,-0.9 1.6,-2 2.2,-3.1c0.2,-0.5 0.5,-0.9 0.7,-1.5c0.2,-0.5 0.4,-1.1 0.6,-1.6c0.1,-0.3 0.2,-0.6 0.2,-0.9l0.7,-4.9c0.1,-0.7 0.2,-1.3 0.3,-1.9c0.1,-0.9 0.2,-1.8 0.3,-2.8c0.1,-0.9 0.2,-1.9 0.2,-3c1.2,-0.1 5.9,-0.7 9.5,-0.6c-0.1,2.7 -0.4,5.4 -0.9,8.1l-1.9,12c0,1.7 0.8,2.6 2.3,2.6m5.6,-3.2c0,-0.6 0,-1.2 0.1,-1.7l2,-12.5c-0.4,0 -0.6,0.1 -0.8,0.1c-0.5,0.1 -0.7,0.1 -0.9,0.2c-0.3,0.1 -0.7,0.1 -1,0.2c-0.3,-1.8 -0.3,-3.6 0,-5.4c0.4,0 0.8,0 1.4,-0.1c0.3,0 2.3,0 2.4,0c0.7,-1.9 1.8,-3.5 2.2,-5.7c0.6,-0.1 1.4,-0.2 2.2,-0.3c0.4,0 0.6,-0.1 0.9,-0.1c0.3,0 0.6,0 1,-0.1c1,-0.1 2.1,-0.1 3.4,-0.1c-0.1,1.7 -0.3,3.8 -0.6,6.3l1.8,0c2.8,0 3.9,-0.3 4.8,-1c0.5,0.9 0.8,1.9 0.8,2.9c0,1.4 -0.4,2.3 -4.8,2.4c-0.3,0 -0.6,0 -1,0l-2.3,0l-2,12.5c0,0.3 0,0.3 0,0.4c0,0.1 0,0.3 0,0.4c0,1.7 0.8,3.1 2.1,3.1c2.1,0 2.6,-1.6 3.4,-1.6c1.9,0.3 3,1.4 3,1.4c-1.4,2.7 -5,5.2 -8.8,5.2c-5.8,-0.1 -9.1,-2.7 -9.3,-6.5z" id="Revolut-logo-coloured_1_"/>
  </g>
  <g display="none" id="Guide"/>
 </g>
</svg>