<svg width="150" height="40" xmlns="http://www.w3.org/2000/svg">
 <g>
  <title>background</title>
  <rect x="-1" y="-1" width="152" height="42" id="canvas_background" fill="#ffffff"/>
 </g>

 <g>
  <title>Layer 1</title>
  <g stroke="null" id="svg_1">
   <g stroke="null" id="svg_2">
    <g stroke="null" id="svg_3">
     <g stroke="null" id="svg_4">
      <g stroke="null" id="svg_5">
       <path stroke="null" d="m113.30273,8.5416l11.52174,-1.46872l0,31.65909l-11.52174,0l0,-30.19037zm18.43478,0l0,30.19037l11.52174,0l0,-31.65909l-11.52174,1.46872zm-34.56522,30.19037l11.52174,0l0,-22.84676l-11.52174,0l0,22.84676zm-78.80869,-19.74613c-1.61304,0 -5.06957,-0.16319 -5.06957,-2.44787c0,-2.61106 5.06957,-2.61106 6.91304,-2.61106c3.22609,0 7.60435,0.65277 10.6,1.30553c0,0 2.07391,0.48958 3.45652,0.81596l0.46087,0l0,-0.16319l0,-7.18041l-0.46087,-0.16319c-3.68696,-0.81596 -8.06522,-1.7951 -15.66956,-1.7951c-13.36522,0.32638 -18.20435,5.87488 -18.20435,10.60743c0,2.77425 1.61304,9.1387 17.05217,9.95466c1.38261,0 4.83913,0.16319 4.83913,2.44787c0,1.95829 -3.22609,2.93745 -8.06522,2.93745c-5.3,0 -9.21739,-0.97915 -13.82609,-1.7951l0,7.50679c4.6087,0.81596 10.13913,1.30553 16.36087,1.30553c13.13478,0 19.12609,-5.22211 19.12609,-10.44424c0,-5.87488 -6.45217,-9.62828 -17.51304,-10.28105l0.00001,0zm71.66522,-3.5902c-11.06087,0.16319 -15.9,3.7534 -15.9,10.60743l0,12.72892l11.52174,0l0,-10.28105c0,-4.07978 0,-5.87488 6.91304,-6.03807l0,-6.85403c0,-0.32638 -2.53478,-0.16319 -2.53478,-0.16319zm-32.03043,0.48958c-0.23043,0 -2.30435,4.07978 -6.91304,7.99637l0,-16.80869l-11.52174,1.7951l0,29.86399l11.52174,0l0,-8.81233c4.6087,3.7534 5.53043,8.81233 5.53043,8.81233l14.74783,0c-1.38261,-3.26382 -7.83478,-11.74976 -7.83478,-11.74976c5.76087,-5.05892 8.29565,-11.097 8.52609,-11.097l-14.05652,0l-0.00001,-0.00001zm44.93478,-2.44787c3.22609,0 5.76087,-1.7951 5.76087,-4.07978c0,-2.28468 -2.53478,-4.07978 -5.76087,-4.07978c-3.22609,0 -5.76087,1.7951 -5.76087,4.07978c0,2.28468 2.53478,4.07978 5.76087,4.07978z" fill="#B73091" id="svg_6"/>
      </g>
     </g>
    </g>
   </g>
   <g stroke="null" id="svg_7">
    <g stroke="null" id="svg_8">
     <g stroke="null" id="svg_9">
      <g stroke="null" id="svg_10">
       <path stroke="null" d="m117.91143,7.88883l6.91304,-0.81596l0,31.65909l-11.52174,0l4.6087,-30.84313zm17.97391,0.16319l-4.14783,30.67994l11.52174,0l0,-31.65909l-7.37391,0.97915zm-38.71304,30.67994l11.52174,0l0,-22.84676l-4.83913,0l-6.68261,22.84676zm-96.78261,-21.37804c0,2.77425 1.61304,9.1387 16.82174,9.95466c1.38261,0 6.91304,0.16319 6.91304,2.44787c0,1.95829 -5.53043,2.93745 -10.13913,2.93745c-5.3,0 -9.21739,-0.97915 -13.82609,-1.7951l0,7.50679c4.6087,0.81596 10.13913,1.30553 16.36087,1.30553c13.13478,0 19.12609,-5.22211 19.12609,-10.44424c0,-5.87488 -6.45217,-9.62828 -17.51304,-10.28105c-1.61304,0 -4.83913,-0.16319 -4.83913,-2.44787c0,-2.61106 5.06957,-2.61106 6.91304,-2.61106c3.22609,0 7.60435,0.65277 10.6,1.30553c0,0 2.07391,0.48958 3.45652,0.81596l0.46087,0l0,-0.16319l0,-7.18041l-0.46087,-0.16319c-3.68696,-0.81596 -8.06522,-1.7951 -15.66956,-1.7951m55.53478,18.93017l0,13.05529l11.52174,0l0,-10.28105c0,-4.07978 0,-5.87488 6.91304,-6.03807l0,-6.85403c0,-0.16319 -2.53478,-0.16319 -2.53478,-0.16319m-50.46522,23.33634l11.52174,0l0,-8.81233c4.6087,3.7534 9.9087,8.81233 9.9087,8.81233l10.13913,0c-1.38261,-3.26382 -7.83478,-11.74976 -7.83478,-11.74976c5.76087,-5.05892 8.29565,-11.097 8.52609,-11.097l-6.91304,0c-0.23043,0 -9.21739,4.07978 -13.82609,7.99637l0,-16.15593m51.84782,5.71169c3.22609,0 5.76087,-1.7951 5.76087,-4.07978c0,-2.28468 -2.53478,-4.07978 -5.76087,-4.07978" fill="#862165" id="svg_11"/>
      </g>
     </g>
    </g>
   </g>
  </g>
 </g>
</svg>