<svg xmlns="http://www.w3.org/2000/svg" width="104.755" height="104.755" viewBox="0 0 104.755 104.755">
  <path id="accept" d="M47,94A47.012,47.012,0,0,1,28.706,3.694,47.012,47.012,0,0,1,65.294,90.306,46.707,46.707,0,0,1,47,94ZM47,7.834A39.167,39.167,0,1,0,86.167,47,39.211,39.211,0,0,0,47,7.834Zm-3.653,58.7c-.114,0-.228-.006-.342-.017-.083.006-.167.009-.251.009a3.592,3.592,0,0,1-3.43-2.575L28.278,52.915a3.525,3.525,0,0,1,4.974-4.979l8.538,8.555L59.26,25.521a3.916,3.916,0,0,1,5.4-1.508,4.1,4.1,0,0,1,1.41,5.55L46.687,63.971a3.2,3.2,0,0,1-.861,1.531A3.516,3.516,0,0,1,43.346,66.534Z" transform="translate(11.456) rotate(7)" fill="#4cc10d"/>
</svg>
