<svg id="Group" xmlns="http://www.w3.org/2000/svg" width="39" height="36" viewBox="0 0 39 36">
  <path id="Path" d="M29.415,0C25.267,0,21.95,3.2,19.89,5.317,17.786,3.217,14.409,0,10.27,0,4.208,0,0,4.333,0,10.546,0,24.036,17.413,35.154,18.184,35.6a2.565,2.565,0,0,0,2.745,0C21.665,35.136,39,23.966,39,10.555,38.939,4.043,35.294,0,29.415,0Z" fill="#fd2c63"/>
  <path id="Path-2" data-name="Path" d="M17.035,31S0,20.283,0,7.971C0,3.215,3.043,0,7.724,0s8.84,6.2,9.712,6.2S22.344,0,27.026,0,34,3.215,34,7.971C34.035,20.168,17.035,31,17.035,31Z" transform="translate(3 3)" fill="#fd2c63"/>
</svg>
