<svg xmlns="http://www.w3.org/2000/svg" width="22" height="34" viewBox="0 0 22 34">
  <path id="cloud-down" d="M8.8,26.667V2.365A2.285,2.285,0,0,1,11,0a2.285,2.285,0,0,1,2.2,2.365v24.3l5.663-4.122A1.815,1.815,0,0,1,20.5,22.3a2,2,0,0,1,1.216,1.208,3.02,3.02,0,0,1-.768,3.589l-8.254,6a.43.43,0,0,1-.11.092,2.01,2.01,0,0,1-.549.511,1.736,1.736,0,0,1-.812.26.173.173,0,0,0-.044,0l-.066.017c-.044,0-.066.021-.11.021a.45.45,0,0,1-.11-.021l-.066-.017a.327.327,0,0,0-.066-.014,1.766,1.766,0,0,1-.571-.123c-.066-.035-.132-.09-.22-.132a2.616,2.616,0,0,1-.417-.307c-.066-.071-.11-.173-.176-.253L1.056,27.079a3.02,3.02,0,0,1-.768-3.589,1.993,1.993,0,0,1,1.22-1.2,1.815,1.815,0,0,1,1.634.255Z" fill="#fd2c63"/>
</svg>
