<svg xmlns="http://www.w3.org/2000/svg" width="21.065" height="38.108" viewBox="0 0 21.065 38.108">
  <path id="S" d="M17.9,10.062a2.475,2.475,0,0,1-.614.7,1.374,1.374,0,0,1-.829.234,2.027,2.027,0,0,1-.965-.283q-.517-.283-1.17-.634a9.709,9.709,0,0,0-1.492-.634,5.968,5.968,0,0,0-1.911-.283,4.112,4.112,0,0,0-2.759.79,2.687,2.687,0,0,0-.907,2.135A1.967,1.967,0,0,0,7.8,13.514a4.707,4.707,0,0,0,1.433.975,15.363,15.363,0,0,0,2.028.751q1.141.341,2.33.76a20.84,20.84,0,0,1,2.33.985,7.771,7.771,0,0,1,2.028,1.443,6.735,6.735,0,0,1,1.433,2.135,7.592,7.592,0,0,1,.546,3.032,9.88,9.88,0,0,1-.683,3.686,8.629,8.629,0,0,1-1.979,2.993,9.187,9.187,0,0,1-3.2,2.008q-.258.1-.527.185c-1.136.364-.266,4.606-.712,4.606-.637,0-4.9.1-5.577,0-.231-.035.029-4.287-.2-4.333a16.039,16.039,0,0,1-2.662-.77,15.435,15.435,0,0,1-2.418-1.18A10.274,10.274,0,0,1,0,29.27l1.95-3.081a1.952,1.952,0,0,1,.614-.556,1.6,1.6,0,0,1,.829-.224,2.22,2.22,0,0,1,1.18.371q.595.371,1.345.819a10.95,10.95,0,0,0,1.726.819,6.471,6.471,0,0,0,2.3.371A4.381,4.381,0,0,0,12.733,27a3.007,3.007,0,0,0,.995-2.506,2.368,2.368,0,0,0-.546-1.618,4.218,4.218,0,0,0-1.433-1.033,13.205,13.205,0,0,0-2.018-.722Q8.6,20.807,7.41,20.426a16.977,16.977,0,0,1-2.32-.936,7.323,7.323,0,0,1-2.018-1.462,6.844,6.844,0,0,1-1.433-2.262,8.981,8.981,0,0,1-.546-3.344A7.935,7.935,0,0,1,1.735,9.3a8.054,8.054,0,0,1,1.892-2.71,9.3,9.3,0,0,1,3.061-1.9c.5-.195.011-4.5.566-4.617.8-.165,4.211,0,5.131,0,.653,0-.251,3.943.376,4.02q.315.038.625.09a13.377,13.377,0,0,1,2.35.6,12.9,12.9,0,0,1,2.077.956A9.575,9.575,0,0,1,19.539,7Z" transform="translate(0.636 0.493)" fill="#fd2c63" stroke="#fd2c63" stroke-miterlimit="10" stroke-width="1"/>
</svg>
