<?xml version="1.0" encoding="UTF-8"?>
<svg width="31px" height="31px" viewBox="0 0 31 31" version="1.1" xmlns="http://www.w3.org/2000/svg" xmlns:xlink="http://www.w3.org/1999/xlink">
    <!-- Generator: Sketch 53.2 (72643) - https://sketchapp.com -->
    <title>Group</title>
    <desc>Created with Sketch.</desc>
    <g id="Symbols" stroke="none" stroke-width="1" fill="none" fill-rule="evenodd">
        <g id="Header-1" transform="translate(-1283.000000, -21.000000)" fill="#EC2F61">
            <g id="Group" transform="translate(1283.220000, 21.900000)">
                <path d="M14.78,21.1 C18.0937085,21.1 20.78,18.4137085 20.78,15.1 C20.78,11.7862915 18.0937085,9.1 14.78,9.1 C11.4662915,9.1 8.78,11.7862915 8.78,15.1 C8.78508305,18.4116007 11.4683993,21.094917 14.78,21.1 Z M14.78,12.1 C16.4368542,12.1 17.78,13.4431458 17.78,15.1 C17.78,16.7568542 16.4368542,18.1 14.78,18.1 C13.1231458,18.1 11.78,16.7568542 11.78,15.1 C11.78,13.4431458 13.1231458,12.1 14.78,12.1 Z" id="Shape"></path>
                <path d="M13.5,24.5 L13.5,28.5 C13.5,29.3284271 14.1715729,30 15,30 C15.8284271,30 16.5,29.3284271 16.5,28.5 L16.5,24.5 C16.5,23.6715729 15.8284271,23 15,23 C14.1715729,23 13.5,23.6715729 13.5,24.5 Z" id="Shape"></path>
                <path d="M15,7 C15.8284271,7 16.5,6.32842712 16.5,5.5 L16.5,1.5 C16.5,0.671572875 15.8284271,0 15,0 C14.1715729,0 13.5,0.671572875 13.5,1.5 L13.5,5.5 C13.5,6.32842712 14.1715729,7 15,7 Z" id="Shape"></path>
                <path d="M1.5,16.5 L5.5,16.5 C6.32842712,16.5 7,15.8284271 7,15 C7,14.1715729 6.32842712,13.5 5.5,13.5 L1.5,13.5 C0.671572875,13.5 0,14.1715729 0,15 C0,15.8284271 0.671572875,16.5 1.5,16.5 Z" id="Shape"></path>
                <path d="M23,15 C23,15.8284271 23.6715729,16.5 24.5,16.5 L28.5,16.5 C29.3284271,16.5 30,15.8284271 30,15 C30,14.1715729 29.3284271,13.5 28.5,13.5 L24.5,13.5 C23.6715729,13.5 23,14.1715729 23,15 Z" id="Shape"></path>
                <path d="M7.22,9.34 C7.81101951,9.89071772 8.73201944,9.87446775 9.3032436,9.3032436 C9.87446775,8.73201944 9.89071772,7.81101951 9.34,7.22 L6.51,4.39 C6.13605884,3.98869364 5.57288892,3.82350164 5.04142218,3.95922892 C4.50995545,4.0949562 4.0949562,4.50995545 3.95922892,5.04142218 C3.82350164,5.57288892 3.98869364,6.13605884 4.39,6.51 L7.22,9.34 Z" id="Shape"></path>
                <path d="M20.66,20.66 C20.0750932,21.2456351 20.0750932,22.1943649 20.66,22.78 L23.49,25.61 C24.0810195,26.1607177 25.0020194,26.1444678 25.5732436,25.5732436 C26.1444678,25.0020194 26.1607177,24.0810195 25.61,23.49 L22.78,20.66 C22.1943649,20.0750932 21.2456351,20.0750932 20.66,20.66 Z" id="Shape"></path>
                <path d="M21.72,9.78 C22.1176907,9.7796499 22.4989653,9.62138497 22.78,9.34 L25.61,6.51 C26.1607177,5.91898049 26.1444678,4.99798056 25.5732436,4.4267564 C25.0020194,3.85553225 24.0810195,3.83928228 23.49,4.39 L20.66,7.22 C20.2315594,7.64897364 20.1034836,8.29368416 20.335426,8.85384703 C20.5673685,9.4140099 21.1137167,9.77946673 21.72,9.78 L21.72,9.78 Z" id="Shape"></path>
                <path d="M7.22,20.66 L4.39,23.49 C3.98869364,23.8639412 3.82350164,24.4271111 3.95922892,24.9585778 C4.0949562,25.4900446 4.50995545,25.9050438 5.04142218,26.0407711 C5.57288892,26.1764984 6.13605884,26.0113064 6.51,25.61 L9.34,22.78 C9.89071772,22.1889805 9.87446775,21.2679806 9.3032436,20.6967564 C8.73201944,20.1255322 7.81101951,20.1092823 7.22,20.66 Z" id="Shape"></path>
            </g>
        </g>
    </g>
</svg>