<?xml version="1.0" encoding="utf-8"?>
<svg width="32px" height="32px" viewBox="0 0 32 32" version="1.1" xmlns:xlink="http://www.w3.org/1999/xlink" xmlns="http://www.w3.org/2000/svg">
  <desc>Created with Lunacy</desc>
  <defs>
    <path d="M12.8652 3.57367C12.6872 3.57367 12.52 3.61012 12.3627 3.66873L10.6488 2.26571C10.691 2.11275 10.721 1.95408 10.721 1.78683C10.721 0.796213 9.92479 0 8.93417 0C7.94355 0 7.14734 0.796213 7.14734 1.78683C7.14734 2.06987 7.21881 2.33361 7.3346 2.5709L5.25544 5.02815C5.17253 5.01386 5.08962 5.00314 5.00313 5.00314C4.8752 5.00314 4.75441 5.02458 4.63719 5.05603L2.80533 3.22416C2.83749 3.10766 2.85893 2.98687 2.85893 2.85893C2.85893 2.06701 2.22139 1.42947 1.42947 1.42947C0.637542 1.42947 0 2.06701 0 2.85893C0 3.65086 0.637542 4.2884 1.42947 4.2884C1.5574 4.2884 1.67819 4.26696 1.79541 4.23551L3.62727 6.06737C3.59511 6.18388 3.57367 6.30467 3.57367 6.4326C3.57367 7.22453 4.21121 7.86207 5.00313 7.86207C5.79506 7.86207 6.4326 7.22453 6.4326 6.4326C6.4326 6.26321 6.39829 6.10382 6.34469 5.95302L8.42671 3.4929C8.58895 3.54008 8.75692 3.57367 8.93417 3.57367C9.22793 3.57367 9.50024 3.49719 9.74396 3.37283L11.4586 4.77585C11.4472 4.85018 11.4357 4.92523 11.4357 5.00314C11.4357 5.79506 12.0733 6.4326 12.8652 6.4326C13.6571 6.4326 14.2947 5.79506 14.2947 5.00314C14.2947 4.21121 13.6571 3.57367 12.8652 3.57367Z" transform="translate(0.02507833 0.28840125)" id="path_1" />
    <clipPath id="mask_1">
      <use xlink:href="#path_1" />
    </clipPath>
  </defs>
  <g id="icon">
    <path d="M15.999 0L16.001 0Q16.3938 0 16.786 0.0192715Q17.1783 0.038543 17.5692 0.0770395Q17.96 0.115536 18.3485 0.173165Q18.737 0.230794 19.1222 0.307416Q19.5075 0.384039 19.8884 0.47947Q20.2694 0.574901 20.6453 0.688911Q21.0211 0.802922 21.3909 0.935236Q21.7607 1.06755 22.1236 1.21785Q22.4864 1.36815 22.8415 1.53607Q23.1965 1.704 23.5429 1.88914Q23.8892 2.07428 24.2261 2.2762Q24.563 2.47812 24.8896 2.69632Q25.2161 2.91452 25.5316 3.14848Q25.8471 3.38245 26.1507 3.63161Q26.4543 3.88077 26.7453 4.14452Q27.0363 4.40828 27.314 4.686Q27.5917 4.96372 27.8555 5.25473Q28.1192 5.54574 28.3684 5.84934Q28.6176 6.15294 28.8515 6.46841Q29.0855 6.78387 29.3037 7.11043Q29.5219 7.43699 29.7238 7.77387Q29.9257 8.11075 30.1109 8.45712Q30.296 8.8035 30.4639 9.15855Q30.6318 9.51359 30.7821 9.87645Q30.9324 10.2393 31.0648 10.6091Q31.1971 10.9789 31.3111 11.3547Q31.4251 11.7306 31.5205 12.1116Q31.616 12.4925 31.6926 12.8777Q31.7692 13.263 31.8268 13.6515Q31.8845 14.04 31.923 14.4308Q31.9615 14.8217 31.9807 15.214Q32 15.6062 32 15.999L32 16.001Q32 16.3938 31.9807 16.786Q31.9615 17.1783 31.923 17.5692Q31.8845 17.96 31.8268 18.3485Q31.7692 18.737 31.6926 19.1222Q31.616 19.5075 31.5205 19.8884Q31.4251 20.2694 31.3111 20.6453Q31.1971 21.0211 31.0648 21.3909Q30.9324 21.7607 30.7821 22.1236Q30.6318 22.4864 30.4639 22.8415Q30.296 23.1965 30.1109 23.5429Q29.9257 23.8892 29.7238 24.2261Q29.5219 24.563 29.3037 24.8896Q29.0855 25.2161 28.8515 25.5316Q28.6176 25.8471 28.3684 26.1507Q28.1192 26.4543 27.8555 26.7453Q27.5917 27.0363 27.314 27.314Q27.0363 27.5917 26.7453 27.8555Q26.4543 28.1192 26.1507 28.3684Q25.8471 28.6176 25.5316 28.8515Q25.2161 29.0855 24.8896 29.3037Q24.563 29.5219 24.2261 29.7238Q23.8893 29.9257 23.5429 30.1109Q23.1965 30.296 22.8415 30.4639Q22.4864 30.6318 22.1236 30.7821Q21.7607 30.9324 21.3909 31.0648Q21.0211 31.1971 20.6453 31.3111Q20.2694 31.4251 19.8884 31.5205Q19.5075 31.616 19.1222 31.6926Q18.737 31.7692 18.3485 31.8268Q17.96 31.8845 17.5692 31.923Q17.1783 31.9615 16.786 31.9807Q16.3938 32 16.001 32L15.999 32Q15.6062 32 15.214 31.9807Q14.8217 31.9615 14.4308 31.923Q14.04 31.8845 13.6515 31.8268Q13.263 31.7692 12.8777 31.6926Q12.4925 31.616 12.1116 31.5205Q11.7306 31.4251 11.3547 31.3111Q10.9789 31.1971 10.6091 31.0648Q10.2393 30.9324 9.87645 30.7821Q9.51359 30.6318 9.15855 30.4639Q8.8035 30.296 8.45712 30.1109Q8.11075 29.9257 7.77387 29.7238Q7.43699 29.5219 7.11043 29.3037Q6.78387 29.0855 6.46841 28.8515Q6.15294 28.6176 5.84934 28.3684Q5.54574 28.1192 5.25473 27.8555Q4.96372 27.5917 4.686 27.314Q4.40828 27.0363 4.14452 26.7453Q3.88077 26.4543 3.63161 26.1507Q3.38245 25.8471 3.14848 25.5316Q2.91452 25.2161 2.69632 24.8896Q2.47812 24.563 2.2762 24.2261Q2.07428 23.8893 1.88914 23.5429Q1.704 23.1965 1.53607 22.8415Q1.36815 22.4864 1.21785 22.1236Q1.06755 21.7607 0.935236 21.3909Q0.802922 21.0211 0.688911 20.6453Q0.574901 20.2694 0.47947 19.8884Q0.384039 19.5075 0.307416 19.1222Q0.230794 18.737 0.173165 18.3485Q0.115536 17.96 0.0770395 17.5692Q0.038543 17.1783 0.0192715 16.786Q0 16.3938 0 16.001L0 15.999Q0 15.6062 0.0192715 15.214Q0.038543 14.8217 0.0770395 14.4308Q0.115536 14.04 0.173165 13.6515Q0.230794 13.263 0.307416 12.8777Q0.384039 12.4925 0.47947 12.1116Q0.574901 11.7306 0.688911 11.3547Q0.802922 10.9789 0.935236 10.6091Q1.06755 10.2393 1.21785 9.87645Q1.36815 9.51359 1.53607 9.15855Q1.704 8.8035 1.88914 8.45712Q2.07428 8.11075 2.2762 7.77387Q2.47812 7.43699 2.69632 7.11043Q2.91452 6.78387 3.14848 6.46841Q3.38245 6.15294 3.63161 5.84934Q3.88077 5.54574 4.14452 5.25473Q4.40828 4.96372 4.686 4.686Q4.96372 4.40828 5.25473 4.14452Q5.54574 3.88077 5.84934 3.63161Q6.15294 3.38245 6.46841 3.14848Q6.78387 2.91452 7.11043 2.69632Q7.43699 2.47812 7.77387 2.2762Q8.11075 2.07428 8.45712 1.88914Q8.8035 1.704 9.15855 1.53607Q9.51359 1.36815 9.87645 1.21785Q10.2393 1.06755 10.6091 0.935236Q10.9789 0.802922 11.3547 0.688911Q11.7306 0.574901 12.1116 0.47947Q12.4925 0.384039 12.8777 0.307416Q13.263 0.230794 13.6515 0.173165Q14.04 0.115536 14.4308 0.0770395Q14.8217 0.038543 15.214 0.0192715Q15.6062 0 15.999 0Z" id="Rectangle" fill="#CCF5F8" stroke="none" />
    <g id="icon/regular-icon/bx-dollar" transform="translate(8.827586 12.137931)">
      <path d="M12.8652 3.57367C12.6872 3.57367 12.52 3.61012 12.3627 3.66873L10.6488 2.26571C10.691 2.11275 10.721 1.95408 10.721 1.78683C10.721 0.796213 9.92479 0 8.93417 0C7.94355 0 7.14734 0.796213 7.14734 1.78683C7.14734 2.06987 7.21881 2.33361 7.3346 2.5709L5.25544 5.02815C5.17253 5.01386 5.08962 5.00314 5.00313 5.00314C4.8752 5.00314 4.75441 5.02458 4.63719 5.05603L2.80533 3.22416C2.83749 3.10766 2.85893 2.98687 2.85893 2.85893C2.85893 2.06701 2.22139 1.42947 1.42947 1.42947C0.637542 1.42947 0 2.06701 0 2.85893C0 3.65086 0.637542 4.2884 1.42947 4.2884C1.5574 4.2884 1.67819 4.26696 1.79541 4.23551L3.62727 6.06737C3.59511 6.18388 3.57367 6.30467 3.57367 6.4326C3.57367 7.22453 4.21121 7.86207 5.00313 7.86207C5.79506 7.86207 6.4326 7.22453 6.4326 6.4326C6.4326 6.26321 6.39829 6.10382 6.34469 5.95302L8.42671 3.4929C8.58895 3.54008 8.75692 3.57367 8.93417 3.57367C9.22793 3.57367 9.50024 3.49719 9.74396 3.37283L11.4586 4.77585C11.4472 4.85018 11.4357 4.92523 11.4357 5.00314C11.4357 5.79506 12.0733 6.4326 12.8652 6.4326C13.6571 6.4326 14.2947 5.79506 14.2947 5.00314C14.2947 4.21121 13.6571 3.57367 12.8652 3.57367Z" transform="translate(0.02507833 0.28840125)" id="bx-stats" fill="none" stroke="none" />
      <g clip-path="url(#mask_1)">
        <path d="M0 0L20.9655 0L20.9655 20.9655L0 20.9655L0 0Z" transform="translate(-3.310345 -6.62069)" id="🎨-color" fill="#00CFDD" stroke="none" />
      </g>
    </g>
  </g>
</svg>