<?xml version="1.0" encoding="utf-8"?>
<svg width="81px" height="81px" viewBox="0 0 81 81" version="1.1" xmlns:xlink="http://www.w3.org/1999/xlink" xmlns="http://www.w3.org/2000/svg">
  <desc>Created with Lunacy</desc>
  <path d="M36 72C16.1177 72 0 55.8822 0 36C0 16.1177 16.1177 0 36 0C55.8822 0 72 16.1177 72 36C72 55.8822 55.8822 72 36 72L36 72ZM36 6C19.4315 6 6 19.4315 6 36C6 52.5685 19.4315 66 36 66C52.5685 66 66 52.5685 66 36C66 19.4315 52.5685 6 36 6L36 6ZM36.5668 48.9229C36.4604 49.368 36.2322 49.7746 35.9078 50.0968C35.342 50.6675 34.5502 50.9531 33.7513 50.8744C32.4682 50.9641 31.2962 50.1455 30.9358 48.9079L22.4894 40.4475C21.543 39.3784 21.5909 37.7553 22.5989 36.7442C23.6068 35.7331 25.2259 35.6838 26.2933 36.6316L32.8228 43.1886L46.1813 19.4497C46.5688 18.7389 47.2264 18.2153 48.0047 17.9976C48.783 17.78 49.6161 17.8868 50.3147 18.2938C51.7604 19.1879 52.2376 21.0706 51.3929 22.548L36.5668 48.9229Z" transform="matrix(0.99254614 0.12186935 -0.12186935 0.99254614 8.774414 0)" id="accept" fill="#4CC10D" fill-rule="evenodd" stroke="none" />
</svg>